<svg id="Layer_1" data-name="Layer 1" xmlns="http://www.w3.org/2000/svg" viewBox="0 0 2500 2500"><defs><style>.cls-1{fill:#5e5f72;}</style></defs><path class="cls-1" d="M1295.79,719.79c-108.07,79.85-141.34,203-185.26,321.34H629C498.94,807.87,560.49,549.84,780,400.45c71.12,23.44,53.69,141.48,162,142.22,102.91-315.79,322.8-475.29,686.09-457.3-51.12,194-77.07,371.09,74.35,512.87,111.82,10.44,125.11-93.7,170-152,192.89,104,266.4,332,194,572.94C1726.31,1134.82,1507.62,1051.51,1295.79,719.79Z"/><path class="cls-1" d="M2022.88,1213.88c-90.92,241.58-177.61,331.93-371.56,391.65-47.07,207.3-97,419.91-143.12,633.32-21.43,99.09-59.65,177.29-176.48,177.46-117.46.17-155.52-80-176.75-177.95-45.27-209-92.18-417.62-140.35-635.11-220-26.46-282.37-205.8-387-389.37Z"/></svg>