<svg id="Layer_1" data-name="Layer 1" xmlns="http://www.w3.org/2000/svg" viewBox="0 0 2500 2500"><defs><style>.cls-1{fill:#5e5f72;}</style></defs><path class="cls-1" d="M1539.76,106.07c-130.44-1-259.41,7.81-355.17,102.1q-532,522.48-1054.26,1055.72c-88.91,90.39-82.56,193.46,8.8,285.31C290.09,1701.62,441,1854.05,594.44,2004c93.8,91.85,191,80.61,286.28-1,44.46-38.1,89.9-74.74,118.23-98.68,8.31-464.11,251.6-840.29,833.44-878.88,138.75-109,202.74-249.16,201.77-429.42C2032.2,106.55,2035.62,108.51,1539.76,106.07Zm-47.88,732.8c-102.59-.49-193.46-95.26-191-199.33,2.44-108.94,89.88-191,200.78-183.69,114.81,7.34,176.85,72.79,181.74,186.63C1688.27,748.49,1596.43,839.85,1491.88,838.87Z"/><path class="cls-1" d="M1773.28,1187.19c-354.19,2-626.8,279.93-624.35,636.07,2,350.77,286.29,631.68,635.58,628.26,344.91-2.93,631.68-295.07,628.75-640C2410.82,1462.73,2125.51,1185.24,1773.28,1187.19Zm137.77,972.68c-83.06,21.49-32.74,172-145.58,142.65-65-25.41-47.89-77.68-75.73-107-35.66-9.77-72.3-19.54-103.09-27.85-32.72-42.5-30.77-77.18-3.9-109.92,92.82-58.13,215.93,27.85,305.82-66.93-25.4-90.86-111.38-89.89-172-118.71-84.52-39.57-174.9-65.95-187.11-179.78-12.21-110.9,24.91-193.46,133.37-230.59,61.07-20.52,28.34-90.38,83.05-122.62,124.09-46.41,105.53,180.75,227.17,129.46,33.71,48.85,29.31,83.05-16.12,123.11-80.12,3.91-171,8.3-257,12.21-36.64,57.16-19.06,90.87,28.83,112.37,48.36,22,98.67,40.55,148.51,61.06,79.63,32.73,148.51,76.71,154.86,173.92C2038.06,2047.5,2009.24,2133.49,1911.05,2159.87Z"/></svg>