<svg id="Layer_1" data-name="Layer 1" xmlns="http://www.w3.org/2000/svg" viewBox="0 0 2500 2500"><defs><style>.cls-1{fill:#5e5f72;}</style></defs><path class="cls-1" d="M2394.81,438.13c-1.2-123.46-83.22-171.75-205.34-139.12-78,20.84-155.15,44.9-233.72,63C1701,420.76,1467.3,322.62,1229.09,260.74c-175.67-45.64-349.76-86.89-535.17-58C576.18,221,530.4,276.8,532.76,393.33c4.44,219.4,1.28,439,1.28,658.45,0,229,1.67,458.09-.73,687.11-1.12,106.48,42.9,199,148.89,185.33,282.2-36.43,536.71,63.18,796.65,133.86,274.94,74.76,536,43.83,794.91-60.94,73.35-29.67,122.81-72.8,122.86-156.19C2396.94,1373.34,2399.38,905.7,2394.81,438.13ZM1405.42,1640.91c-55.11-148.25-5.57-279.62-39.56-402.2-61.06-41.14-133,1-218.27-43l433-542.82c59.23,148,6.91,279.63,42.48,400.05,61.34,41.69,134.68-3.06,215.16,47.59Z"/><path class="cls-1" d="M244.56,2394.29c-108.35-25.4-141.82-91.57-141.51-191.07q3-951.84.48-1903.7c-.16-101,23.84-191.27,139.68-193.13,125.74-2,148.11,93.51,148,199.39q-1.44,944.7.58,1889.38C392.09,2299.25,361.84,2371.8,244.56,2394.29Z"/></svg>