<svg id="Layer_1" data-name="Layer 1" xmlns="http://www.w3.org/2000/svg" viewBox="0 0 2500 2500"><defs><style>.cls-1{fill:#5e5f72;}.cls-2{fill:#646578;}.cls-3{fill:#616274;}</style></defs><path class="cls-1" d="M2393.46,1137.38c0-221.56,2.55-442.84-.85-664.12-2.54-148.84-78.1-199.77-220.71-159-72.16,20.66-144,41.88-217,58.58-251.56,57.44-482.18-39.62-717-101.31C1055,223.68,873.09,181,681.52,221.42,598.89,239,555,281.13,555,364q-.85,699.5.28,1399c.29,95.64,59.71,165.25,148.28,152.24,263.72-39.06,501.7,54,744.76,122.8,272.5,77,536.23,61.69,800-41,102.44-39.89,149.41-98.19,146.58-209.67C2389.78,1570.6,2393.46,1353.85,2393.46,1137.38ZM1924,1251.7c-65.36,124.22-114.88,244.77-96.21,378.89-111.77,89.7-126.76,86.31-211.94-44.71-95.92,146.58-146.57,146-234-4.52-48.95,72.43-92.82,169.21-208,64.8,17-141.49-39.62-270.52-106.68-403.23-95.93-189.31-24.9-422.19,145.44-556,166.11-130.45,398.42-127.34,573.86,7.92C1952,822.15,2021.93,1065.23,1924,1251.7Z"/><path class="cls-1" d="M274.67,2379.43c-106.33-21.64-145.93-82.72-145.68-182.54q2.35-946.69.48-1893.38c-.1-101.23,30-186.2,144.81-183.34,114.15,2.84,139.06,90.17,138.9,190.22q-1.49,939.62.51,1879.24C414,2287.81,380.67,2352.93,274.67,2379.43Z"/><path class="cls-2" d="M1795.61,1079.59c-20.25,88.42-68.44,129.28-154.07,111.54-52.84-10.94-80.7-52.79-84-101.58-4.26-63.14,29.7-111,93.47-122.45C1730.51,952.84,1773.14,999.09,1795.61,1079.59Z"/><path class="cls-3" d="M1435.52,1089.42c-9.32,71.36-50,109.79-122.64,104.61-72.41-5.16-111.41-49.65-107.09-121.28,4.37-72.36,51-111.11,122-106.85C1400,970.24,1433.55,1017.59,1435.52,1089.42Z"/></svg>