<svg id="Layer_1" data-name="Layer 1" xmlns="http://www.w3.org/2000/svg" viewBox="0 0 2500 2500"><defs><style>.cls-1{fill:#5e5f72;}.cls-2{fill:#616274;}</style></defs><path class="cls-1" d="M2383.53,278c-1.91-125.25-100.5-173.36-220.05-173.36-609.16,0-1218.32-1-1827,1-164.32.48-231,70.49-232.9,237.67-1.91,181-.48,362-.48,543,0,774,395.32,1295.48,1153.55,1508.85C1840.57,2233.64,2219.21,1868.8,2353,1275.36,2426.87,947.68,2388.76,611,2383.53,278ZM1663.87,1661.15H829v-642c19.53-57.62,80-42.86,103.35-78.58,13.34-314.82,111.45-456.28,313.87-456.28,201.94.48,299.58,141.93,314.34,460.09,30,15.24,62.39,31.91,106.22,54.77C1678.64,1213,1682,1428.72,1663.87,1661.15Z"/><path class="cls-2" d="M1405.23,956.72H1085.69C1079.58,848.39,1050.25,743,1150,664.79c58.49-45.87,126.35-47.7,185.78-4.89C1438.17,733.67,1417.08,840.83,1405.23,956.72Z"/><path class="cls-1" d="M1361.43,1371.09c-2.38,73.35-47.15,109.07-120,112.41-71.92-8.1-112.88-47.63-110-120.5,2.38-73.35,47.15-114.31,119.07-111.93C1322.37,1253.93,1363.33,1298.22,1361.43,1371.09Z"/></svg>