<svg id="Layer_1" data-name="Layer 1" xmlns="http://www.w3.org/2000/svg" viewBox="0 0 2500 2500"><defs><style>.cls-1{fill:#5e5f72;}.cls-2{fill:#5f6073;}</style></defs><path class="cls-1" d="M1664.45,703.56c-241.15-219.8-579.62-221.22-824.57-3.33-261.09,232.61-268.69,554.47-16.62,908.6,0,55.07.48,116.31,0,178-1.42,81.66-4.74,163.78,86.88,206,85.45,39.88,141.46-15.67,199.85-69.31,92.57,106.81,184.66,112,282.45-3.8,60.29,64.56,118.21,115.36,194.64,73.11,167.57-92.57,53.16-260.15,103.48-398.76C1927.45,1275.12,1921.27,937.12,1664.45,703.56ZM970.9,1292.67c-88.3-3.79-136.72-62.18-129.6-151,6.18-82.6,58.87-123.43,139.57-124.85,85,8.55,132,54.12,131.5,137.19C1111.89,1244.73,1058.24,1296.48,970.9,1292.67Zm582.95.48c-87.35,3.8-143.84-48.42-143.37-137.66,0-88.3,50.79-140,142.42-137.2,85.44,2.85,122.95,56,131,123.43C1680.12,1238.09,1634.08,1289.83,1553.85,1293.15Z"/><path class="cls-2" d="M295.75,2201.32c-118.43-16.64-215-59.24-178.11-188.81,37.3-131.08,144.44-145.08,257.38-104.29,82.11-49.07,123.37-137.69,219.08-179.76L753,1914.64c-24.38,91.94-107,126.63-157.29,202.57,30.4,113.26,29.42,232.69-122.73,267.19C344.36,2413.55,318.68,2309.31,295.75,2201.32Z"/><path class="cls-2" d="M1746.22,582.8c33.54-94.62,115.72-130.16,157-198.87-24.63-160.06,15.4-253.59,121.54-270.62,129.56-20.79,159.66,71.25,176.57,172.52,76.49,39.13,190.83,32.67,188.31,159.57-1.79,90.36-59.36,133.74-143,168.56L2116.8,592l-188,177.27C1841.48,727.25,1810,643,1746.22,582.8Z"/><path class="cls-2" d="M1909.88,2121.92c-55.44-76.82-127-113.93-163-199.41l157.09-195.65c90.73,36,134.23,121.38,214.42,178.51,114.22-30.89,234.88-33,267.8,121.71,26.91,126.46-72.76,156.94-175.28,173.93-30.2,100.67-52.56,223.77-196.81,180.4C1883.63,2342.19,1868.73,2236.25,1909.88,2121.92Z"/><path class="cls-2" d="M585.57,375.85l166,175.95C720,648.46,644.76,699.28,595.91,769.53c-93.75-40-135.66-120.63-209.13-172.69-43.19-20.82-84.63,30.54-171.88,1.37-40.77-15.35-104.91-59.48-103-156.65,2.2-114.38,95.42-125.64,181.45-144.07C318.87,188.8,349.94,72.72,491.78,119.75,609.72,158.85,643.42,254.55,585.57,375.85Z"/></svg>